<svg fill="none" height="256" viewBox="0 0 256 256" width="256" xmlns="http://www.w3.org/2000/svg"><rect fill="#f6f7f9" height="256" rx="56" width="256"/><g transform="translate(36 32)"><path d="m86 0c20 0 36 16 36 36 0 11-5 22-13 29l-26 24c-6 6-16 6-22 0-10-10-10-26 0-36l17-16c-7-23-1-37 8-37z" fill="#2f4b63"/><path d="m28 54c12-12 31-12 43 0 8 8 8 21 0 29l-18 18c-15 15-40 15-55 0-6-6-6-17 0-23z" fill="#5c6b7a"/><path d="m152 58c14 0 26 12 26 26 0 7-3 14-8 19l-26 26c-8 8-21 8-29 0s-8-21 0-29l26-26c5-5 12-8 19-8z" fill="#7b8895"/></g></svg>